<svg width="84" height="84" viewBox="0 0 84 84" fill="none" xmlns="http://www.w3.org/2000/svg">
<path fill-rule="evenodd" clip-rule="evenodd" d="M25.2613 0.315315C11.484 0.315315 0.315308 11.484 0.315308 25.2612V58.5225C0.315308 72.2998 11.484 83.4685 25.2612 83.4685H58.5225C72.2998 83.4685 83.4685 72.2998 83.4685 58.5225V25.2613C83.4685 11.484 72.2998 0.315315 58.5225 0.315315H25.2613ZM8.63062 25.2612C8.63062 16.0764 16.0764 8.63063 25.2613 8.63063H58.5225C67.7074 8.63063 75.1531 16.0764 75.1531 25.2613V58.5225C75.1531 67.7074 67.7074 75.1531 58.5225 75.1531H25.2612C16.0764 75.1531 8.63062 67.7074 8.63062 58.5225V25.2612ZM46.0495 25.2613C46.0495 22.965 44.1881 21.1036 41.8919 21.1036C39.5957 21.1036 37.7342 22.965 37.7342 25.2613V37.7342H25.2613C22.965 37.7342 21.1036 39.5957 21.1036 41.8919C21.1036 44.1881 22.965 46.0495 25.2613 46.0495H37.7342V58.5225C37.7342 60.8187 39.5957 62.6802 41.8919 62.6802C44.1881 62.6802 46.0495 60.8187 46.0495 58.5225V46.0495H58.5225C60.8187 46.0495 62.6802 44.1881 62.6802 41.8919C62.6802 39.5957 60.8187 37.7342 58.5225 37.7342H46.0495V25.2613Z" fill="#4B5C6B"/>
</svg>
