<svg width="64" height="64" viewBox="0 0 64 64" fill="none" xmlns="http://www.w3.org/2000/svg">
<path d="M63.8155 32.0261C63.8155 49.4755 49.67 63.6211 32.2206 63.6211C14.7712 63.6211 0.62561 49.4755 0.62561 32.0261C0.62561 14.5767 14.7712 0.431152 32.2206 0.431152C49.67 0.431152 63.8155 14.5767 63.8155 32.0261ZM10.0733 32.0261C10.0733 44.2577 19.989 54.1733 32.2206 54.1733C44.4521 54.1733 54.3678 44.2577 54.3678 32.0261C54.3678 19.7945 44.4521 9.87889 32.2206 9.87889C19.989 9.87889 10.0733 19.7945 10.0733 32.0261Z" fill="url(#paint0_angular_1_185)"/>
<circle cx="32.5366" cy="58.8818" r="4.73924" fill="#4D4F7D"/>
<defs>
<radialGradient id="paint0_angular_1_185" cx="0" cy="0" r="1" gradientUnits="userSpaceOnUse" gradientTransform="translate(32.2206 32.0261) rotate(90) scale(31.595)">
<stop stop-color="#4D4F7D"/>
<stop offset="0.175675" stop-color="#4D4F7D"/>
<stop offset="1" stop-color="white" stop-opacity="0"/>
</radialGradient>
</defs>
</svg>
