<svg width="31" height="30" viewBox="0 0 31 30" fill="none" xmlns="http://www.w3.org/2000/svg">
<path d="M27.6462 0.87493C27.6156 0.872491 27.5897 0.856745 27.5578 0.856745H14.3515C12.3195 0.856745 10.666 2.48699 10.666 4.49026V5.70136C10.666 6.37001 11.2162 6.91268 11.8944 6.91268C12.5726 6.91268 13.1228 6.37001 13.1228 5.70136V4.49026C13.1228 3.82295 13.6744 3.27916 14.3515 3.27916H20.075L19.7002 3.40269C18.7053 3.74178 18.037 4.66591 18.037 5.70136V23.869H14.3515C13.6744 23.869 13.1228 23.3252 13.1228 22.6579V20.2354C13.1228 19.567 12.5726 19.0243 11.8944 19.0243C11.2162 19.0243 10.666 19.567 10.666 20.2354V22.6579C10.666 24.6611 12.3195 26.2914 14.3515 26.2914H18.037V27.5025C18.037 28.8384 19.1387 29.9249 20.4938 29.9249C20.7568 29.9249 21.0062 29.8874 21.2764 29.8049L28.6573 27.3789C29.6536 27.0399 30.3219 26.1157 30.3219 25.0803V3.27916C30.3219 1.86692 29.0872 0.75983 27.6462 0.87493V0.87493Z" fill="#292B5C"/>
<path d="M13.9913 12.1121L9.07738 7.26752C8.72602 6.92111 8.19785 6.81688 7.73828 7.00472C7.28007 7.19234 6.98044 7.63455 6.98044 8.12378V11.7573H2.06629C1.3883 11.7573 0.83786 12.3 0.83786 12.9684C0.83786 13.637 1.3883 14.1797 2.06629 14.1797H6.98044V17.8132C6.98044 18.3025 7.28007 18.7445 7.73828 18.9323C8.19785 19.1199 8.72602 19.0159 9.07738 18.6695L13.9913 13.8247C14.4718 13.3512 14.4718 12.5858 13.9913 12.1121Z" fill="#292B5C"/>
</svg>
