<svg width="48" height="49" viewBox="0 0 48 49" fill="none" xmlns="http://www.w3.org/2000/svg">
<path d="M41 7C31.6 -2.3 16.4 -2.3 6.99999 7C-2.30001 16.4 -2.30001 31.6 6.99999 41C16.4 50.4 31.6 50.4 40.9 41C50.3 31.6 50.3 16.4 41 7ZM40 26C40 26.6 39.6 27 39 27H28C27.5 27 27 27.5 27 28V39C27 39.5 26.5 40 26 40H22C21.4 40 21 39.6 21 39V28C21 27.4 20.6 27 20 27H8.99999C8.39999 27 7.99999 26.6 7.99999 26V22C7.99999 21.5 8.49999 21 8.99999 21H20C20.6 21 21 20.6 21 20V9C21 8.5 21.5 8 22 8H26C26.5 8 27 8.4 27 9V20C27 20.6 27.4 21 28 21H39C39.5 21 40 21.5 40 22V26Z" fill="#4B5C6B"/>
</svg>
