<svg width="20" height="17" viewBox="0 0 20 17" fill="none" xmlns="http://www.w3.org/2000/svg">
<path d="M7.75 9C7.75 7.75736 8.75736 6.75 10 6.75C11.2426 6.75 12.25 7.75736 12.25 9C12.25 10.2426 11.2426 11.25 10 11.25C8.75736 11.25 7.75 10.2426 7.75 9Z" fill="#4B5C6B"/>
<path fill-rule="evenodd" clip-rule="evenodd" d="M5.47366 3.64245C5.47366 1.90692 6.88058 0.5 8.61611 0.5H11.3838C13.1194 0.5 14.5263 1.90692 14.5263 3.64245C14.5263 3.65729 14.5377 3.66964 14.5525 3.67084L16.7821 3.85192C17.7808 3.93303 18.6022 4.67157 18.7886 5.65609C19.2643 8.1684 19.2997 10.7443 18.8934 13.2687L18.7962 13.8729C18.6128 15.0118 17.6755 15.8783 16.5257 15.9717L14.5834 16.1294C11.5328 16.3772 8.46716 16.3772 5.41659 16.1294L3.47426 15.9717C2.32448 15.8783 1.38711 15.0118 1.2038 13.8729L1.10655 13.2687C0.700216 10.7443 0.735685 8.16839 1.21137 5.65609C1.39778 4.67157 2.21915 3.93303 3.21788 3.85192L5.44747 3.67084C5.46227 3.66964 5.47366 3.65729 5.47366 3.64245ZM10 5.25C7.92893 5.25 6.25 6.92893 6.25 9C6.25 11.0711 7.92893 12.75 10 12.75C12.0711 12.75 13.75 11.0711 13.75 9C13.75 6.92893 12.0711 5.25 10 5.25Z" fill="#4B5C6B"/>
</svg>
