<svg width="89" height="85" viewBox="0 0 89 85" fill="none" xmlns="http://www.w3.org/2000/svg">
<path fill-rule="evenodd" clip-rule="evenodd" d="M9.0359 38.1757C9.0359 22.1022 22.066 9.0721 38.1395 9.0721C54.213 9.0721 67.2431 22.1022 67.2431 38.1757C67.2431 54.2492 54.213 67.2793 38.1395 67.2793C22.066 67.2793 9.0359 54.2492 9.0359 38.1757ZM38.1395 0.756783C17.4736 0.756783 0.720584 17.5098 0.720584 38.1757C0.720584 58.8416 17.4736 75.5946 38.1395 75.5946C48.0633 75.5946 57.0848 71.7315 63.7822 65.427C63.9318 65.6511 64.1054 65.8638 64.3032 66.0616L80.9338 82.6922C82.5575 84.3158 85.19 84.3158 86.8136 82.6922C88.4373 81.0685 88.4373 78.436 86.8136 76.8124L70.183 60.1817C69.8283 59.827 69.4254 59.5498 68.9954 59.35C73.1353 53.3287 75.5584 46.0352 75.5584 38.1757C75.5584 17.5098 58.8054 0.756783 38.1395 0.756783Z" fill="white"/>
<path d="M63.7822 65.427L64.198 65.1494L63.8698 64.6579L63.4395 65.063L63.7822 65.427ZM64.3032 66.0616L64.6567 65.708L64.6567 65.708L64.3032 66.0616ZM80.9338 82.6922L80.5803 83.0457L80.5803 83.0457L80.9338 82.6922ZM86.8136 82.6922L87.1672 83.0457L87.1672 83.0457L86.8136 82.6922ZM68.9954 59.35L68.5834 59.0668L68.2482 59.5543L68.7847 59.8035L68.9954 59.35ZM38.1395 8.5721C21.7899 8.5721 8.5359 21.8261 8.5359 38.1757H9.5359C9.5359 22.3784 22.3422 9.5721 38.1395 9.5721V8.5721ZM67.7431 38.1757C67.7431 21.8261 54.4891 8.5721 38.1395 8.5721V9.5721C53.9368 9.5721 66.7431 22.3784 66.7431 38.1757H67.7431ZM38.1395 67.7793C54.4891 67.7793 67.7431 54.5253 67.7431 38.1757H66.7431C66.7431 53.973 53.9368 66.7793 38.1395 66.7793V67.7793ZM8.5359 38.1757C8.5359 54.5253 21.7899 67.7793 38.1395 67.7793V66.7793C22.3422 66.7793 9.5359 53.973 9.5359 38.1757H8.5359ZM1.22058 38.1757C1.22058 17.7859 17.7497 1.25678 38.1395 1.25678V0.256783C17.1975 0.256783 0.220584 17.2337 0.220584 38.1757H1.22058ZM38.1395 75.0946C17.7497 75.0946 1.22058 58.5655 1.22058 38.1757H0.220584C0.220584 59.1177 17.1975 76.0946 38.1395 76.0946V75.0946ZM63.4395 65.063C56.8311 71.2836 47.9309 75.0946 38.1395 75.0946V76.0946C48.1956 76.0946 57.3384 72.1794 64.1249 65.7911L63.4395 65.063ZM64.6567 65.708C64.4823 65.5336 64.3295 65.3463 64.198 65.1494L63.3664 65.7047C63.5341 65.9559 63.7286 66.194 63.9496 66.4151L64.6567 65.708ZM81.2874 82.3386L64.6567 65.708L63.9496 66.4151L80.5803 83.0457L81.2874 82.3386ZM86.4601 82.3386C85.0317 83.767 82.7158 83.767 81.2874 82.3386L80.5803 83.0457C82.3992 84.8647 85.3483 84.8647 87.1672 83.0457L86.4601 82.3386ZM86.4601 77.1659C87.8885 78.5943 87.8885 80.9102 86.4601 82.3386L87.1672 83.0457C88.9861 81.2268 88.9861 78.2777 87.1672 76.4588L86.4601 77.1659ZM69.8295 60.5353L86.4601 77.1659L87.1672 76.4588L70.5366 59.8282L69.8295 60.5353ZM68.7847 59.8035C69.1624 59.9789 69.5167 60.2226 69.8295 60.5353L70.5366 59.8282C70.1398 59.4314 69.6884 59.1206 69.206 58.8966L68.7847 59.8035ZM75.0584 38.1757C75.0584 45.9309 72.6678 53.1262 68.5834 59.0668L69.4074 59.6333C73.6028 53.5313 76.0584 46.1395 76.0584 38.1757H75.0584ZM38.1395 1.25678C58.5293 1.25678 75.0584 17.7859 75.0584 38.1757H76.0584C76.0584 17.2337 59.0815 0.256783 38.1395 0.256783V1.25678Z" fill="white"/>
</svg>
